<svg xmlns="http://www.w3.org/2000/svg" viewBox="0 0 1024 1024" width="1024" height="1024"><rect width="1024" height="1024" fill="#C026D3"/><g transform="translate(512 512) scale(1.08) translate(-560.0 -560.0)"><circle cx="470" cy="600" r="275" fill="#FFFFFF" stroke="#C026D3" stroke-width="40" paint-order="stroke" stroke-linejoin="round" stroke-linecap="round" /><g transform="rotate(-10 470 340)"><ellipse cx="470" cy="340" rx="270" ry="105" fill="#FFFFFF" stroke="#C026D3" stroke-width="40" paint-order="stroke" stroke-linejoin="round" stroke-linecap="round"/><circle cx="470" cy="235" r="34" fill="#FFFFFF" stroke="#C026D3" stroke-width="40" paint-order="stroke" stroke-linejoin="round" stroke-linecap="round"/></g><line x1="790" y1="890" x2="850" y2="620" stroke="#C026D3" stroke-width="92" stroke-linecap="round"/><line x1="790" y1="890" x2="850" y2="620" stroke="#FFFFFF" stroke-width="52" stroke-linecap="round"/><path d="M830,650 L870,500 Q 895,430 925,500 L885,650 Z" fill="#FFFFFF" stroke="#C026D3" stroke-width="40" paint-order="stroke" stroke-linejoin="round" stroke-linecap="round"/><line x1="822" y1="715" x2="880" y2="660" stroke="#000000" stroke-width="16" stroke-linecap="round"/><ellipse cx="374.0" cy="610.0" rx="44.8" ry="60.8" fill="#000000"/><circle cx="361.4" cy="589.4" r="15.2" fill="#FFFFFF"/><circle cx="388.3" cy="633.1" r="6.2" fill="#FFFFFF"/><ellipse cx="566.0" cy="610.0" rx="44.8" ry="60.8" fill="#000000"/><circle cx="553.4" cy="589.4" r="15.2" fill="#FFFFFF"/><circle cx="580.3" cy="633.1" r="6.2" fill="#FFFFFF"/><path d="M439.2,710.0 L500.8,710.0 A30.8,36.4 0 0 1 439.2,710.0 Z" fill="#000000" stroke="#000000" stroke-width="12.6" stroke-linejoin="round"/><line x1="296.5" y1="716.4" x2="305.1" y2="694.8" stroke="#000000" stroke-width="5.3" stroke-linecap="round"/><line x1="309.7" y1="716.4" x2="318.3" y2="694.8" stroke="#000000" stroke-width="5.3" stroke-linecap="round"/><line x1="322.9" y1="716.4" x2="331.5" y2="694.8" stroke="#000000" stroke-width="5.3" stroke-linecap="round"/><line x1="608.5" y1="716.4" x2="617.1" y2="694.8" stroke="#000000" stroke-width="5.3" stroke-linecap="round"/><line x1="621.7" y1="716.4" x2="630.3" y2="694.8" stroke="#000000" stroke-width="5.3" stroke-linecap="round"/><line x1="634.9" y1="716.4" x2="643.5" y2="694.8" stroke="#000000" stroke-width="5.3" stroke-linecap="round"/></g></svg>