<svg xmlns="http://www.w3.org/2000/svg" viewBox="0 0 1024 1024" width="1024" height="1024"><rect width="1024" height="1024" fill="#0F766E"/><g transform="translate(512 512) scale(1.022) translate(-512.0 -532.0)"><line x1="512" y1="420" x2="512" y2="470" stroke="#0F766E" stroke-width="100" stroke-linecap="round"/><line x1="512" y1="420" x2="512" y2="470" stroke="#FFFFFF" stroke-width="60" stroke-linecap="round"/><path d="M250,160 L640,160 L740,235 L640,310 L250,310 Z" fill="#FFFFFF" stroke="#0F766E" stroke-width="40" paint-order="stroke" stroke-linejoin="round" stroke-linecap="round"/><path d="M774,330 L384,330 L284,405 L384,480 L774,480 Z" fill="#FFFFFF" stroke="#0F766E" stroke-width="40" paint-order="stroke" stroke-linejoin="round" stroke-linecap="round"/><circle cx="512" cy="680" r="225" fill="#FFFFFF" stroke="#0F766E" stroke-width="40" paint-order="stroke" stroke-linejoin="round" stroke-linecap="round" /><ellipse cx="435.2" cy="675.0" rx="35.8" ry="48.6" fill="#000000"/><circle cx="425.2" cy="658.5" r="12.2" fill="#FFFFFF"/><circle cx="446.7" cy="693.5" r="5.0" fill="#FFFFFF"/><ellipse cx="588.8" cy="675.0" rx="35.8" ry="48.6" fill="#000000"/><circle cx="578.8" cy="658.5" r="12.2" fill="#FFFFFF"/><circle cx="600.3" cy="693.5" r="5.0" fill="#FFFFFF"/><path d="M487.4,755.0 L536.6,755.0 A24.6,29.1 0 0 1 487.4,755.0 Z" fill="#000000" stroke="#000000" stroke-width="10.1" stroke-linejoin="round"/><line x1="373.2" y1="760.1" x2="380.1" y2="742.8" stroke="#000000" stroke-width="4.2" stroke-linecap="round"/><line x1="383.7" y1="760.1" x2="390.7" y2="742.8" stroke="#000000" stroke-width="4.2" stroke-linecap="round"/><line x1="394.3" y1="760.1" x2="401.2" y2="742.8" stroke="#000000" stroke-width="4.2" stroke-linecap="round"/><line x1="622.8" y1="760.1" x2="629.7" y2="742.8" stroke="#000000" stroke-width="4.2" stroke-linecap="round"/><line x1="633.3" y1="760.1" x2="640.3" y2="742.8" stroke="#000000" stroke-width="4.2" stroke-linecap="round"/><line x1="643.9" y1="760.1" x2="650.8" y2="742.8" stroke="#000000" stroke-width="4.2" stroke-linecap="round"/></g></svg>